<svg xmlns="http://www.w3.org/2000/svg" viewBox="0 0 406.55 530.14"><defs><style>.cls-1{isolation:isolate;}.cls-2{fill:#1f77b9;}.cls-12,.cls-3{fill:#fac8ca;}.cls-4{fill:#00afec;}.cls-5{fill:#5f2b70;}.cls-6{fill:#b77eb4;}.cls-7{fill:#d1d3d4;}.cls-12,.cls-14,.cls-19,.cls-20,.cls-7{mix-blend-mode:multiply;}.cls-8{fill:#fff;}.cls-9{fill:none;}.cls-10{fill:#dae2d7;}.cls-11{fill:#a975a8;}.cls-12{opacity:0.77;}.cls-13{fill:#793683;}.cls-14{opacity:0.28;}.cls-15{fill:#fbb35a;}.cls-16{fill:#4e1e5d;}.cls-17{fill:#bd2232;}.cls-18,.cls-19{fill:#9b6b9a;}.cls-20{fill:#bcbec0;}.cls-21{fill:#0097ca;}.cls-22{fill:#0082b0;}</style></defs><title>parents-dad</title><g class="cls-1"><g id="Layer_1" data-name="Layer 1"><path class="cls-2" d="M130.2,420.59s-20.41-2.83-23.67-27.35l23.36,2.55Z"/><path class="cls-3" d="M131.13,376.12S103.3,408.68,72,410.05s-22,43.43,14.77,30.71,57.52-45.28,57.52-45.28"/><path class="cls-4" d="M126.54,378.26c-15.16,17.92-16,13.39-20.79,15.44,0,0,26.27,4.87,23.67,27.35,0,0,7-4.13,17.59-23.56,1.78-3.27,1.34-7.31,0-10.78a30.86,30.86,0,0,0-2.87-5.57C140.22,375.25,131.1,372.87,126.54,378.26Z"/><path class="cls-5" d="M82.76,442c-33.42,8.45-41-30.59-10.79-31.9l1-.06C79.55,416.06,86.61,426.54,82.76,442Z"/><path class="cls-6" d="M210.5,455.85s13-52.75,47.53-54.46c24.67-1.23,41.06,14.4,38.65,36.36-2.35,21.47,5.35,24.95,20.29,25,0,0-11.5,19.24-35.59,15.19-24.67-4.14-20.67-23.45-37.65-22.89-11,.36-18.8,8.87-23,14.86a6,6,0,0,1-10.66-1.66C209.21,465.31,209.06,461.32,210.5,455.85Z"/><path class="cls-7" d="M267.47,461.81c-3.51-23-25.34-14.42-32.36-18.71-5.78-3.53-10-27.33,21.94-41.64-33.8,2.65-46.55,54.39-46.55,54.39-1.44,5.47-1.29,9.46-.41,12.37a6,6,0,0,0,10.66,1.66c4.18-6,12-14.5,23-14.86,15.86-.53,13.42,16.29,33.14,21.88A22.05,22.05,0,0,1,267.47,461.81Z"/><path class="cls-8" d="M256.55,409.41s16.77-2.26,27.29,8.12S287,451.29,292,457.14c0,0-5.67,1.12-5.46-17.25S281.11,415.09,256.55,409.41Z"/><path class="cls-3" d="M144.27,372s-15,13-21.24,46.06c-5.87,31.27.34,73,15.52,97.52a12.21,12.21,0,0,0,7.64,5.45,58.13,58.13,0,0,0,17.37,1.48,12.21,12.21,0,0,0,11.23-12.6c-.27-6.56.2-14.83,3.71-18.82,0,0,5.45,9.79,21.6,19.73a15.45,15.45,0,0,0,12.1,1.8c5.13-1.38,12.14-4.23,17.34-10.07a15.64,15.64,0,0,0,3-15.82c-5.46-14.71-16.86-53.67-4.24-96.76,0,0,3.95-20.67-27.74-31.75S144.27,372,144.27,372Z"/><path class="cls-5" d="M133.51,506.77a89.44,89.44,0,0,0,4.73,8.82,12.17,12.17,0,0,0,7.63,5.44,58.16,58.16,0,0,0,17.38,1.48,12.18,12.18,0,0,0,11.22-12.6c0-.45,0-.9,0-1.37A50.12,50.12,0,0,1,133.51,506.77Z"/><path class="cls-5" d="M231.39,484.55c-10.55,16.46-27,20.83-38.36,21.7,2,1.5,4.25,3,6.75,4.58a15.46,15.46,0,0,0,12.1,1.8c5.13-1.38,12.15-4.24,17.34-10.07a15.63,15.63,0,0,0,3-15.82C231.93,486.07,231.66,485.32,231.39,484.55Z"/><path class="cls-9" d="M162.34,488.91c2.65,4.19,2.12,11.62,1,17.82A55.72,55.72,0,0,1,158,503.2a55.72,55.72,0,0,1-12.69-1.63C157.4,495.21,162.34,488.91,162.34,488.91Z"/><path class="cls-10" d="M120.84,466.12s1.66,23.05,10.66,40.65c0,0,25.49,12.43,45.66,1.77V493.13l12.7,13.6s29,3.14,43.3-21.36l-9.33-35.17Z"/><path class="cls-4" d="M228.25,390s3.25-17-19.85-28.46c-11.37,43.42-42.77,60.21-63.53,49-9.05-4.87-8.61-18.84-4.88-33.76-4.93,6.37-31,44.05-25.13,87.27,46.85,17.22,92.59.83,111.26-12.81C223.15,433,221,414.92,228.25,390Z"/><path class="cls-11" d="M186.27,143.88c151.13,73.3,25.92,186.77,83.19,244.1,0,0-62.41,33.57-59.08-64.77C212.7,254.67,130.12,150.28,186.27,143.88Z"/><path class="cls-11" d="M133.36,74.8s30.53-27.46,71.2-20.64S251.06,79,251.06,79Z"/><path class="cls-11" d="M189.16,70.72s56.74-26.21,105,26.47,37,92.06,101.37,101.63c0,0-52.5,71.17-118.14,14.2C235.1,176.36,189.16,70.72,189.16,70.72Z"/><path class="cls-11" d="M214.34,91.82s50.43-15.55,88.15,45.08,15.17,102.78,76.7,124c0,0-50.21,55-104.28-13C240.12,204.1,214.34,91.82,214.34,91.82Z"/><path class="cls-11" d="M220.1,81.69c160.13,50.7,59.6,195.67,124,246,0,0-68.38,42.42-77.4-61.58C260.4,193.58,164.82,98.23,220.1,81.69Z"/><path class="cls-11" d="M223.26,96.65c151.1,73.36,21,197,77.44,256.1,0,0-64.19,37.3-58-66.91C246.92,213.2,166.16,105,223.26,96.65Z"/><path class="cls-3" d="M77.54,162.83s-39.88-48.35-47.41-89.1A19,19,0,0,1,51.21,51.49c20,2.67,65.84,25.13,94.58,59.86"/><path class="cls-8" d="M87.27,152.6c12-21,30.28-23.19,30.28-23.19S71.24,81.13,54.17,76.21C24.67,67.69,74.37,145.68,87.27,152.6Z"/><path class="cls-3" d="M334.26,200.31c-5-35.16-28.51-60-53.91-77.89-51.12-36-135-52.88-195.3,1.1-33.27,29.79-54.16,81.6-58.87,123.64-6.14,54.82,28,86,64.43,110,3.22,2.12,6.47,4.21,9.7,6.31a2.33,2.33,0,0,0,.56,2.85c31.5,23.76,84.81,26.83,125.78,11.26C260,365,289.18,336.86,309.46,304.9S339.15,234.8,334.26,200.31Z"/><path class="cls-12" d="M311.64,146.38c31.63,104.81-56.45,133.73-75,116.11-15.62-14.82-48-31.19-86.66-43.05-38.36-11.75-68.3-14-68.3-14s-29.6-5.16-46.5,21.31c.12-5.47-2.4-1.26-3.5,6.36a73.79,73.79,0,0,0-4.89,14.09c-11,45.25,23.9,92.13,84,116.55q2.46,1.74,4.9,3.51a1.52,1.52,0,0,1,.6,1.05c34.5,19.24,88.9,20,127.9-2a185.54,185.54,0,0,0,72.61-75.95C345.2,234.79,339.61,183.2,311.64,146.38Z"/><circle class="cls-8" cx="71.95" cy="199.89" r="40.07"/><circle class="cls-5" cx="71.45" cy="201.49" r="30.86"/><circle class="cls-13" cx="71.45" cy="201.49" r="17.26"/><circle class="cls-8" cx="62.89" cy="188.49" r="10.59"/><circle class="cls-8" cx="78.38" cy="214.78" r="4.58"/><circle class="cls-8" cx="206.4" cy="220.89" r="40.07"/><circle class="cls-5" cx="204.47" cy="221.72" r="30.86"/><circle class="cls-13" cx="204.47" cy="221.72" r="17.26"/><circle class="cls-8" cx="195.91" cy="208.72" r="10.59"/><circle class="cls-8" cx="211.4" cy="235.01" r="4.58"/><path class="cls-3" d="M142.5,382.46c-74.7-10.39-127.43-53.37-125.19-103s46.82-49.1,46.82-49.1,30.5-2.56,71.34,2.81c34.28,4.51,64.75,12.75,84.75,22.25-19.18-11.1-52.69-20.68-91.1-25.28C88.49,225.28,58,228.48,58,228.48s-44.45.24-47.56,51.85,48.71,95.33,123,104.8c22.54,2.88,40.33,1.69,54.57-1.94C175.52,384.94,160.55,385,142.5,382.46Z"/><path class="cls-3" d="M249.73,134.46s48.49-46.58,91.47-57.92a20.32,20.32,0,0,1,25.5,20.74c-1.24,21.66-21.55,72.46-56.38,106"/><path class="cls-8" d="M261.45,144c23.5,11.1,27.27,30.51,27.27,30.51s47.89-53.44,51.78-72.1C347.22,70.2,267.82,129.69,261.45,144Z"/><path class="cls-3" d="M58,228.48s-44.45.24-47.56,51.85,48.7,95.33,123,104.8,97.29-25,110-46.53c17.55-29.73,8.75-62.34-19.56-80.91-18.36-12.05-53.78-22.64-94.79-27.55C88.49,225.28,58,228.48,58,228.48Z"/><path d="M47.21,268.69s2.91-12.16,10.17-14,4.06,6.71.87,7.35S50.24,264.19,47.21,268.69Z"/><path d="M168.86,278.91s-.1-12.5-6.77-15.92-5.47,5.62-2.5,7S166.92,273.84,168.86,278.91Z"/><path class="cls-6" d="M277.09,100.07S249,46,161.5,45.3,75.7,136.16,34.72,135.36c0,0,42.64,48.94,86.7,14.52S231.84,165.13,277.09,100.07Z"/><g class="cls-14"><path class="cls-6" d="M201.73,114.06c-56.82-14.24-58,25.05-101.6,16.12C70,124,89.56,86.3,104.5,63.61,71.39,90.1,63.76,135.92,34.72,135.36c0,0,42.64,48.94,86.7,14.52s110.42,15.25,155.67-49.81a68.18,68.18,0,0,0-8-11.24C260,103.22,240,123.65,201.73,114.06Z"/></g><path class="cls-15" d="M128.41,126.58S137.23,6.31,157.53,3.81c17.62-2.17,28.75,96.59,31.39,122.81a15.91,15.91,0,0,1-5.37,13.64c-4.39,3.81-11.51,7.71-22.3,7.92C140,148.57,127,143,128.41,126.58Z"/><path class="cls-9" d="M128.23,120.83S166,136,186,100.72"/><path class="cls-9" d="M180.34,62.77S168.8,96.71,131.77,92.58"/><path class="cls-9" d="M135.78,63.5s25,6.34,39.32-26.33"/><path class="cls-9" d="M141.81,33.27s20.21,13,28.1-13.76"/><path class="cls-7" d="M158.85,5.36s5.53,26.21-12,27.31c0,0,13.9,9.54,22.33-11C169.22,21.67,165.28,1.1,158.85,5.36Z"/><path class="cls-7" d="M169.54,26.37S168.42,58,137.24,63.76c0,0,25.43,1.84,37.12-24.19Z"/><path class="cls-7" d="M174.88,44.21S167,90.28,135.58,91.72c0,0,24.95,6.15,43.33-24.34Z"/><path class="cls-7" d="M179.59,71.13s-3.8,55.24-46.51,51.19c0,0,36.38,9.89,52.16-19.23Z"/><path class="cls-7" d="M188.74,131.11s-4.68,24.65-50.33,13.89c0,0,39.24,2.48,46.61-37.93Z"/><path class="cls-8" d="M158,8.09s-6.84.33-10.57,22.85c0,0,2.48,2.16,3.42-6.84s4.49-13.32,6.54-14S158,8.09,158,8.09Z"/><path class="cls-8" d="M144.89,39.13s-4.08,17.61-2.84,20.34,4.43-19.85,4.43-19.85S145.34,37.13,144.89,39.13Z"/><path class="cls-8" d="M139.69,68.76s-3.49,17.8-1.33,20.81S142,69.49,142,69.49,140.06,66.74,139.69,68.76Z"/><path class="cls-8" d="M137.46,97.89s-2.77,20.62,1.54,20.31c3-.21,2.15-14,1.87-18.9A2.5,2.5,0,0,0,138.76,97C138.11,96.87,137.54,97,137.46,97.89Z"/><path class="cls-8" d="M138.44,127.72a2.1,2.1,0,0,0-2.54,2.12c-.1,3.72,0,10.9,3.39,10.93s1.21-8.27.47-11.58a1.91,1.91,0,0,0-1.27-1.45Z"/><path class="cls-16" d="M79.32,311.56l60.2,5.53s-7.45,34.64-33.79,32.22S79.32,311.56,79.32,311.56Z"/><path class="cls-17" d="M87.8,337.33c3.67,5.78,9.36,10.53,18.2,11.35,14.68,1.35,23.13-9.54,27.58-18.64C110.38,326.94,96,332.1,87.8,337.33Z"/><path class="cls-8" d="M92,313.27c.34,3.31,3.49,6.12,7.55,6.49l18.69,1.72c4.06.38,7.67-1.82,8.61-5Z"/><path class="cls-18" d="M110.69,270.57s33-20.1,43.6,19C160.87,313.8,187.76,304,187.76,304s-22.45,33.74-61.38,17S99.27,275.57,110.69,270.57Z"/><path class="cls-18" d="M100.34,265.09S67.8,248.81,60.91,286.31c-4.28,23.28-30.28,16.13-30.28,16.13s23.71,29.92,58.93,11.14S111.45,268.88,100.34,265.09Z"/><path class="cls-19" d="M104.17,293.47s-1.91,8.35,0,10.88,6.62,10.56,23.64,17.17C127.81,321.52,106.17,310.8,104.17,293.47Z"/><path class="cls-18" d="M189.15,163.54c12.45-3.61,51.37-11.88,70.32,18.92a7.32,7.32,0,0,1,.41,6.9l-.39.86a7.28,7.28,0,0,1-11.5,2.31c-9.75-8.85-29.36-22.14-56.73-18.86a5.2,5.2,0,0,1-5.84-4.91h0A5.18,5.18,0,0,1,189.15,163.54Z"/><path class="cls-20" d="M168.5,483.87c.5.5,8.66,9.26,8.66,9.26v15.41a34.55,34.55,0,0,1-8.66,3.2Z"/><path class="cls-21" d="M226.12,451.29s-4.53-21.52-2.49-38.84c0,0-11.94-3.53-16.07-9.3,0,0,7,49.81-8.33,61.4C199.23,464.55,217.13,459.49,226.12,451.29Z"/><path class="cls-22" d="M130.2,384.69S106.76,433.8,114,475.14l6.85,6.39s-1.47-78.29,17.12-96.84Z"/><path class="cls-22" d="M210.26,382.37s-3.75-2-11-1.12c0,0-21.83,45.42-10.08,95.65,0,0,29.2-2.78,37-25.61,0,0-2-18.78-2.79-28.13C223.33,423.16,199.62,417.59,210.26,382.37Z"/><path class="cls-2" d="M240.26,419.43s-13.56,9.68-34.71-3.15l16.63-16.6Z"/><path class="cls-3" d="M208.45,385.17s7.92,42.1-10.66,67.37,20,44.36,33.19,7.75.78-73.21.78-73.21"/><path class="cls-4" d="M207.24,390.09c4.72,14.54-.17,20.71-1.6,25.75,0,0,18.74-12.54,34.62,3.59,0,0,.21-23.47-5.2-33.23a14.51,14.51,0,0,0-8.42-6.74,29.71,29.71,0,0,0-6.13-1.25C213.47,377.55,205.06,383.37,207.24,390.09Z"/><path class="cls-5" d="M229.41,464.13c-14.38,31.34-49.51,12.73-31.62-11.59.2-.27.39-.55.58-.82C207.23,450.39,219.81,451.47,229.41,464.13Z"/></g></g></svg>