<svg xmlns="http://www.w3.org/2000/svg" viewBox="0 0 383.5 534.58"><defs><style>.cls-1{isolation:isolate;}.cls-14,.cls-2{fill:#b77eb4;}.cls-3{fill:#d1d3d4;}.cls-12,.cls-14,.cls-21,.cls-24,.cls-3{mix-blend-mode:multiply;}.cls-4{fill:#fff;}.cls-5{fill:#1f77b9;}.cls-12,.cls-21,.cls-6{fill:#fac8ca;}.cls-7{fill:#00afec;}.cls-8{fill:#5f2b70;}.cls-9{fill:#0082b0;}.cls-10{fill:none;}.cls-11{fill:#a975a8;}.cls-12{opacity:0.77;}.cls-13{fill:#793683;}.cls-14{opacity:0.58;}.cls-15{fill:#fbb35a;}.cls-16{fill:#4e1e5d;}.cls-17{fill:#bd2232;}.cls-18{fill:#0097ca;}.cls-19{fill:#515254;}.cls-20{fill:#7e8083;}.cls-21{opacity:0.39;}.cls-22{fill:#99d8e2;}.cls-23,.cls-24{fill:#fcba6b;}</style></defs><title>parents-mom</title><g class="cls-1"><g id="Layer_1" data-name="Layer 1"><path class="cls-2" d="M169.47,456.86s-13-52.75-47.53-54.47c-24.67-1.22-41.07,14.41-38.66,36.37,2.36,21.46-5.35,24.95-20.29,25,0,0,11.51,19.23,35.6,15.19,24.66-4.15,20.67-23.46,37.64-22.9,11,.36,18.81,8.88,23,14.86a6,6,0,0,0,10.65-1.66C170.76,466.32,170.91,462.32,169.47,456.86Z"/><path class="cls-3" d="M112.49,462.82c3.51-23,25.34-14.43,32.36-18.71,5.79-3.54,10-27.33-21.93-41.65,33.79,2.66,46.55,54.4,46.55,54.4,1.44,5.46,1.29,9.46.4,12.36a6,6,0,0,1-10.65,1.66c-4.18-6-12-14.5-23-14.86-15.85-.52-13.42,16.29-33.14,21.89A22,22,0,0,0,112.49,462.82Z"/><path class="cls-4" d="M123.41,410.41s-16.76-2.25-27.29,8.12S93,452.29,87.93,458.14c0,0,5.67,1.12,5.46-17.24S98.85,416.09,123.41,410.41Z"/><path class="cls-5" d="M244.8,427.08s20.6.05,27.26-23.77l-23.48-.74Z"/><path class="cls-6" d="M250.09,382.91s23,36.14,53.84,41.88,15.71,46.08-18.92,28.34-50.62-52.89-50.62-52.89"/><path class="cls-7" d="M254.34,385.67c12.5,19.87,13.94,15.5,18.43,18.2,0,0-26.7,1.14-27.26,23.77,0,0-6.36-5.06-14.13-25.78-1.31-3.5-.3-7.44,1.54-10.68a29.46,29.46,0,0,1,3.61-5.11C241.22,380.79,250.58,379.7,254.34,385.67Z"/><path class="cls-8" d="M288.78,454.86c31.91,13.05,44.84-24.55,15.15-30.07l-1-.2C295.58,429.68,287.12,439.06,288.78,454.86Z"/><path class="cls-6" d="M235.69,373s15,13,21.25,46.06c5.87,31.27-.35,72.94-15.53,97.52a12.2,12.2,0,0,1-7.63,5.44,58.16,58.16,0,0,1-17.38,1.48,12.19,12.19,0,0,1-11.22-12.6c.27-6.55-.21-14.82-3.72-18.82,0,0-5.45,9.79-21.59,19.74a15.48,15.48,0,0,1-12.11,1.8c-5.12-1.38-12.14-4.24-17.33-10.08a15.6,15.6,0,0,1-3-15.81c5.46-14.72,16.86-53.67,4.25-96.76,0,0-4-20.68,27.73-31.75S235.69,373,235.69,373Z"/><path class="cls-8" d="M246.45,507.78a84.23,84.23,0,0,1-4.73,8.81,12.16,12.16,0,0,1-7.63,5.45,58.13,58.13,0,0,1-17.37,1.48,12.21,12.21,0,0,1-11.23-12.6c0-.45,0-.91,0-1.37A50.09,50.09,0,0,0,246.45,507.78Z"/><path class="cls-8" d="M148.57,485.56c10.55,16.46,27,20.83,38.37,21.7-2,1.49-4.26,3-6.76,4.57a15.45,15.45,0,0,1-12.1,1.8c-5.13-1.38-12.14-4.23-17.34-10.07a15.61,15.61,0,0,1-3-15.82C148,487.07,148.3,486.33,148.57,485.56Z"/><path class="cls-9" d="M259.12,467.13s-2.76,20.38-7.33,31.7c0,0-57.16,23.35-102.5-16.3L155.37,456Z"/><path class="cls-10" d="M217.63,489.92c-2.65,4.18-2.13,11.62-1,17.82a61.15,61.15,0,0,0,5.32-3.53,56.42,56.42,0,0,0,12.69-1.63C222.56,496.21,217.63,489.92,217.63,489.92Z"/><path class="cls-7" d="M151.72,391s-3.26-17,19.84-28.46c11.37,43.41,42.77,60.2,63.54,49,9-4.86,8.61-18.84,4.88-33.76,4.93,6.38,31,44.05,25.13,87.28-46.85,17.21-92.59.82-111.27-12.81C156.82,434,159,415.93,151.72,391Z"/><path class="cls-11" d="M192.39,80.94S138.11,52.78,85.23,100.87s-73.55,97.9-54,137.79,4.87,55.32-2,59.54c-16.06,9.85-12,63.82,36.53,66.23s19.51,21,19.51,21,37.09-1,23-24.91c0,0,3.49-10.07,7.9-.62s3.14,16.88,0,19.14c0,0,24.76,2.27,28.44-19.77v30.55s35.7-12.71,35.75-21.63,82.6,28.3,106.5,17.24c0,0-10.32.38-2.65-34.3s2.65-1.68,2.65-1.68-1.8,31.29,18.29,28.11c0,0-11.39-13.08,26.39-41.51S381.21,250.5,356,222.4s-13.74-72.19-37.78-85.76S265.54,46.92,192.39,80.94Z"/><path class="cls-11" d="M246.61,75.81s-30.54-27.46-71.2-20.65S128.91,80,128.91,80Z"/><path class="cls-6" d="M302.42,163.83s39.89-48.35,47.41-89.09a19,19,0,0,0-21.07-22.25c-20.05,2.67-65.84,25.13-94.59,59.87"/><path class="cls-4" d="M292.7,153.61c-12-21.06-30.28-23.2-30.28-23.2s46.3-48.27,63.37-53.2C355.29,68.69,305.59,146.69,292.7,153.61Z"/><path class="cls-6" d="M45.7,201.32c5-35.17,28.51-60,53.92-77.9,51.11-36,135-52.87,195.3,1.11,33.26,29.78,54.15,81.6,58.86,123.63,6.14,54.83-28,86-64.43,110-3.22,2.13-6.46,4.21-9.7,6.32a2.34,2.34,0,0,1-.55,2.85c-31.5,23.76-84.81,26.83-125.78,11.26C120,366,90.79,337.86,70.5,305.91S40.81,235.8,45.7,201.32Z"/><path class="cls-12" d="M68.32,147.38c-31.63,104.81,56.45,133.74,75,116.11,15.62-14.81,48-31.19,86.66-43,38.36-11.76,68.3-14,68.3-14s29.61-5.16,46.5,21.3c-.12-5.47,2.41-1.26,3.5,6.36a73.21,73.21,0,0,1,4.89,14.1c11,45.25-23.9,92.12-84,116.54-1.63,1.16-3.27,2.33-4.89,3.52a1.45,1.45,0,0,0-.6,1.05c-34.51,19.24-88.91,20-127.91-2a185.73,185.73,0,0,1-72.61-75.95C34.76,235.8,40.35,184.2,68.32,147.38Z"/><circle class="cls-4" cx="308.01" cy="200.89" r="40.07"/><circle class="cls-8" cx="308.51" cy="202.5" r="30.86"/><circle class="cls-13" cx="308.51" cy="202.5" r="17.26"/><circle class="cls-4" cx="317.07" cy="189.5" r="10.59"/><circle class="cls-4" cx="301.58" cy="215.79" r="4.58"/><circle class="cls-4" cx="173.56" cy="221.89" r="40.07"/><circle class="cls-8" cx="175.5" cy="222.72" r="30.86"/><circle class="cls-13" cx="175.5" cy="222.72" r="17.26"/><circle class="cls-4" cx="184.05" cy="209.72" r="10.59"/><circle class="cls-4" cx="168.57" cy="236.01" r="4.58"/><path class="cls-6" d="M237.46,383.47c74.71-10.4,127.44-53.37,125.19-103s-46.82-49.11-46.82-49.11-30.49-2.56-71.33,2.82c-34.29,4.51-64.76,12.74-84.76,22.24,19.18-11.1,52.69-20.68,91.1-25.27,40.64-4.86,71.1-1.67,71.1-1.67s44.44.25,47.56,51.86-48.71,95.32-123,104.8c-22.54,2.87-40.33,1.68-54.56-1.94C204.45,386,219.42,386,237.46,383.47Z"/><path class="cls-6" d="M130.23,135.47S81.74,88.89,38.77,77.54A20.33,20.33,0,0,0,13.26,98.28c1.24,21.66,21.55,72.47,56.38,106"/><path class="cls-4" d="M118.51,145C95,156.15,91.24,175.55,91.24,175.55s-47.89-53.43-51.77-72.09C32.74,71.21,112.15,130.69,118.51,145Z"/><path class="cls-6" d="M321.94,229.49s44.44.24,47.56,51.85-48.71,95.32-123,104.8-97.29-25.05-110-46.54c-17.55-29.72-8.75-62.33,19.55-80.91,18.36-12.05,53.79-22.64,94.79-27.54C291.48,226.29,321.94,229.49,321.94,229.49Z"/><path d="M332.75,269.7s-2.9-12.16-10.16-14-4.07,6.7-.88,7.35S329.72,265.19,332.75,269.7Z"/><path d="M211.11,279.91s.09-12.5,6.76-15.91,5.47,5.62,2.5,7S213.05,274.84,211.11,279.91Z"/><path class="cls-2" d="M207.24,84.48c.62-9.39,7.22-17.3,16.69-20.42,11.5-3.79,30.27-4.79,54.82,11.6,42.64,28.45,39.12,77.67,39.12,77.67C293.33,76.29,234.08,78.87,207.24,84.48Z"/><path class="cls-2" d="M207.24,84.48c26.84-5.61,86.09-8.19,110.63,68.85,0,0-27.05-48.21-76.7-47.05-26.89.62-33.52-9.73-34-19.36C207.18,86.1,207.19,85.28,207.24,84.48Z"/><path class="cls-14" d="M207.24,84.48c26.84-5.61,86.09-8.19,110.63,68.85,0,0-27.05-48.21-76.7-47.05-26.89.62-33.52-9.73-34-19.36C207.18,86.1,207.19,85.28,207.24,84.48Z"/><path class="cls-2" d="M184.19,89.86c.07-10.6,7.9-18.94,19-21.18,12.44-2.51,32.45-1.36,57.68,18A94.92,94.92,0,0,1,298,151.8a5,5,0,0,1-8.92,3.57c-11.84-15.7-35-39.07-69.76-42.05C190.64,110.86,184.14,99.64,184.19,89.86Z"/><path class="cls-2" d="M148,93.22c-6.2-7-16.26-8-25-3.09-9.75,5.55-22.42,17.94-28,45.5a83.91,83.91,0,0,0,13.09,64.93,4.4,4.4,0,0,0,8-2.8c-1.22-17.34.68-46.4,22.09-68.54C155.91,111,153.72,99.7,148,93.22Z"/><path class="cls-14" d="M149.46,95.09l-13,34.1-1.3.3.13,2.93S113.56,155,116.16,197.76c0,0,.23,2.82-1.71-.33C98.83,116,149.46,95.09,149.46,95.09Z"/><path class="cls-2" d="M171.2,82.93c-6.86-6.39-17-6.41-25.16-.62-9.15,6.48-20.55,20-23.38,48a83.82,83.82,0,0,0,19.4,63.32,4.4,4.4,0,0,0,7.71-3.57c-2.92-17.13-3.89-46.24,15.25-70.38C180.8,99.8,177.52,88.82,171.2,82.93Z"/><path class="cls-14" d="M172.83,84.65l-9.56,35.2-1.26.44.42,2.89S143,147.74,149.77,190.09c0,0,.5,2.79-1.74-.16C124.49,110.44,172.83,84.65,172.83,84.65Z"/><path class="cls-2" d="M187.73,77.36c-7.5-2.9-15.56.3-20.24,7.52-5.23,8.07-10,22.51-3.34,45.69a72,72,0,0,0,35.6,44.28,3.77,3.77,0,0,0,5-5.3C197,156.83,187,134,194.51,108.63,200.75,87.75,194.64,80,187.73,77.36Z"/><path class="cls-14" d="M189.57,78.22l3.59,31.08-.86.75,1.25,2.17s-7.68,25.76,11.2,57.33c0,0,1.29,2.06-1.43.42C159.28,114.14,189.57,78.22,189.57,78.22Z"/><path class="cls-15" d="M251.55,127.59S242.74,7.31,222.43,4.81C204.82,2.64,193.68,101.4,191,127.63a15.92,15.92,0,0,0,5.37,13.64c4.4,3.8,11.51,7.71,22.3,7.91C240,149.58,253,144,251.55,127.59Z"/><path class="cls-10" d="M251.73,121.83S214,137,194,101.72"/><path class="cls-10" d="M199.62,63.77s11.55,33.94,48.58,29.82"/><path class="cls-10" d="M244.19,64.5s-25,6.35-39.32-26.32"/><path class="cls-10" d="M238.15,34.28s-20.21,13-28.1-13.77"/><path class="cls-3" d="M221.11,6.37s-5.53,26.21,12,27.31c0,0-13.9,9.53-22.32-11C210.75,22.67,214.68,2.1,221.11,6.37Z"/><path class="cls-3" d="M210.43,27.37S211.54,59,242.72,64.76c0,0-25.43,1.85-37.11-24.19Z"/><path class="cls-3" d="M205.08,45.21s7.89,46.08,39.3,47.51c0,0-24.95,6.15-43.33-24.34Z"/><path class="cls-3" d="M200.38,72.13s3.8,55.25,46.5,51.19c0,0-36.38,9.89-52.16-19.22Z"/><path class="cls-3" d="M191.22,132.11s4.69,24.65,50.33,13.9c0,0-39.24,2.47-46.61-37.93Z"/><path class="cls-4" d="M222,9.1s6.84.32,10.57,22.84c0,0-2.47,2.17-3.41-6.83s-4.5-13.33-6.54-14S222,9.1,222,9.1Z"/><path class="cls-4" d="M235.07,40.13s4.09,17.61,2.85,20.35-4.43-19.86-4.43-19.86S234.63,38.13,235.07,40.13Z"/><path class="cls-4" d="M240.28,69.76s3.48,17.8,1.32,20.82-3.67-20.09-3.67-20.09S239.91,67.74,240.28,69.76Z"/><path class="cls-4" d="M242.5,98.89s2.78,20.62-1.54,20.32c-3-.21-2.15-14-1.87-18.9A2.51,2.51,0,0,1,241.2,98C241.85,97.87,242.43,98,242.5,98.89Z"/><path class="cls-4" d="M241.53,128.73a2.1,2.1,0,0,1,2.53,2.12c.11,3.71,0,10.9-3.39,10.93s-1.21-8.27-.47-11.58a1.94,1.94,0,0,1,1.27-1.46Z"/><path class="cls-16" d="M297.79,308.1l-60.2,5.53s7.45,34.64,33.79,32.22S297.79,308.1,297.79,308.1Z"/><path class="cls-17" d="M289.31,333.87c-3.67,5.77-9.36,10.53-18.2,11.34-14.68,1.35-23.13-9.53-27.58-18.64C266.73,323.48,281.1,328.64,289.31,333.87Z"/><path class="cls-4" d="M285.16,309.8c-.34,3.31-3.49,6.13-7.55,6.5L258.92,318c-4.06.37-7.67-1.82-8.61-5Z"/><path class="cls-18" d="M153.84,452.3s4.53-21.53,2.49-38.84c0,0,11.95-3.53,16.08-9.3,0,0-7,49.8,8.32,61.39C180.73,465.55,162.83,460.49,153.84,452.3Z"/><path class="cls-19" d="M183.62,378.11s14.38,39.36-2.89,66.2h-3.6s18.3-23.24,2.81-66.2Z"/><path class="cls-19" d="M153.55,404.41c1.65,1.83-3.82,22.73,3.38,39.9l2.81-2.47s-3.82-9.82-3.32-34.56Z"/><path class="cls-19" d="M188.13,444.31s-24.28-10.17-41.64-1.83c0,0-6.69,16.07-5.69,30l36.33,8.33S190.16,474.49,188.13,444.31Z"/><path class="cls-20" d="M188.13,444.31l-11,18.66L145,459s-.8-8.86,1.53-16.49C146.49,442.48,161.19,434.8,188.13,444.31Z"/><path class="cls-21" d="M156,382.6c15-2.78,18.13-10,21.88-13.68,0,0,0,.37-.05,1l.39-1.3c1.37.8,2.63,1.61,3.82,2.44,9.59-6.57,19.1-15.37,24.36-26.54l0-.06c.19-.41.39-.82.6-1.21.07-.14.15-.27.22-.4s.29-.54.44-.79l.27-.45.41-.68.31-.45.41-.6.32-.43c.14-.18.27-.37.41-.54l.34-.41.42-.5c.12-.13.23-.26.35-.38s.28-.32.43-.46l.36-.35c.14-.15.29-.29.44-.43l.36-.32.45-.38.37-.29c.15-.12.3-.24.46-.35l.37-.27.47-.31.38-.23.47-.28.39-.21.47-.24.39-.18.48-.21.39-.15.48-.17.4-.13.48-.14.4-.1.48-.11.4-.08.48-.07.4-.06.47,0,.41,0h1.32l.43,0,.41,0,.45,0,.37.06.48.08.3.07.54.13.15,0a15.07,15.07,0,0,1,4.43,2l0,0,.65.47.05,0c.21.16.42.32.62.49l.06.05.59.53.05,0c.2.18.38.37.57.57l.05.05c.19.19.37.4.54.6l0,.05c.18.21.35.43.52.65l0,0c.17.23.34.45.5.69l0,0c.17.24.32.48.47.72l0,0c.15.26.3.51.44.77v0c3.46,6.47,3.26,16-4.5,26.36h0c-.8,1.06-1.67,2.13-2.63,3.21a109.43,109.43,0,0,1-31.6,24,16.8,16.8,0,0,1,.1,3.65S177,409,165.84,408.91a14.56,14.56,0,0,1-10-4.19,30.36,30.36,0,0,1-4-4.79C147.94,394.06,149.05,383.88,156,382.6Z"/><path class="cls-5" d="M195.76,403.57S200.23,387.52,181,372L171,393.32Z"/><path class="cls-6" d="M152.71,385.37s42.27-6.94,59.67-33S260.93,356,231,380.9s-68.54,25.73-68.54,25.73"/><path class="cls-7" d="M156.91,382.55c15.28-.53,19.41-7.23,23.66-10.29,0,0-5.39,21.89,15.19,31.31,0,0-22,8.21-33,6.45a14.51,14.51,0,0,1-9.21-5.61,29.5,29.5,0,0,1-3.28-5.34C147.26,392.69,149.86,382.79,156.91,382.55Z"/><path class="cls-8" d="M234.07,378.11c24.55-24.21-4.93-50.88-21.69-25.76-.18.27-.37.55-.57.82C213.59,362,218.9,373.41,234.07,378.11Z"/><path class="cls-22" d="M100.18,107.73a27.4,27.4,0,0,1-1.13-2.61,31,31,0,0,1-5-10.29c-1-4.45.54-10.22,6-10.25,5.71,0,8.64,7.54,10.14,12l1.25,3.72c1.64-6.92,7.18-19,16.21-17.33a7,7,0,0,1,4.9,2.92,7.11,7.11,0,0,1,3.78,7.38c-.43,4.15-4.08,8.15-6.3,11.38-1.67,2.44-3.33,4.88-5,7.3a34.94,34.94,0,0,1,9.72-6.33c7.05-3.05,18-4.63,24.61.35,4.87,3.69,4.94,10.06-.91,12.85-4.38,2.09-9.85.9-14.48,1.54a28.09,28.09,0,0,0-12.29,4.55c14.44-3.46,32.84,3,34.26,18.59.83,9-7.81,13.27-15.41,9.31-4.85-2.53-7.4-7.49-11.5-10.87-5.57-4.58-12.72-4-19.28-5.73l0,0-.4.13c12,2,34.28,19.57,25.78,33.14-8.09,12.92-17.44-3.84-23.06-16.47,2,13.36,1.08,28.47-9.28,25.75-7.67-2-9.14-11.06-8.35-17.72.39-3.3.88-6.62,1.57-9.88-1.42,2.25-2.84,4.42-4.13,6.43-3,4.62-8.77,9.34-14.41,5.67-10.6-6.92.13-19,10.11-27.58a58.49,58.49,0,0,1-6.65,1.84c-4.8,1-16.47,3.81-19.2-2.19-3.76-8.23,8-11.49,19.32-13-8.11-1.6-15.17-5.69-15.09-13.75C76,97.92,90,102.6,100.18,107.73Z"/><path class="cls-23" d="M118.07,108.6a1.38,1.38,0,0,1,.64,2.49s.08,0,.12,0a2.26,2.26,0,0,1,.54,3.28c-1,1.23-2.77,1-3.88.12A3.34,3.34,0,0,1,118.07,108.6Z"/><path class="cls-23" d="M105.35,113a1.36,1.36,0,0,1,.88,1.06,1.46,1.46,0,0,1-.1.52,2.9,2.9,0,0,1,1.79,3.07,3,3,0,0,1-1.42,2,1.74,1.74,0,0,1,2,1.86,1.7,1.7,0,0,1,.69.15,5.61,5.61,0,0,1-.89-2.28,1.07,1.07,0,0,1,.93-1.16c-.15-.41-.31-.83-.42-1.26s.26-.7.65-.68c.71-2,2.79-2.35,4.61-1.34a1.42,1.42,0,0,1,0,2.43,2.27,2.27,0,0,1,.6,1.23,2,2,0,0,1-1.48,2.31c.46.84.91,1.69,1.36,2.55s1,1.83,1.45,2.76a14.09,14.09,0,0,0,1.2-3.56,22.56,22.56,0,0,0,.23-3,8.93,8.93,0,0,1,.14-3.1.78.78,0,0,1,1.31-.22c1.33,1.32,1.2,3.9.83,5.84a14.42,14.42,0,0,1,.26,4.63c0,.29-.07.57-.11.86a28.87,28.87,0,0,0,2.29-3.36A36.1,36.1,0,0,0,124,120c-1.27-1-1.89-3.07-.72-4.34a1.15,1.15,0,0,1,1.25-.39c.79.24.63,1,.61,1.64a2,2,0,0,0,.1.74c.06-.08.09-.17.15-.24a.89.89,0,0,1,1.59.36.86.86,0,0,1,0,.16,1.72,1.72,0,0,0,.63-1.47.12.12,0,0,1,.21-.09,2.62,2.62,0,0,1-.93,4,17.1,17.1,0,0,1-4.36,7.83c.28,0,.55-.1.85-.13,1.95-.22,4.79,0,6.51,1.16,1.11-1.36,3.32-2,3.65-.13a.64.64,0,0,1-.53.73c-.21,0-.5,0-.69,0-.56-.18-.81,0-.75.56a.58.58,0,0,0,.32.93c.82.81,2.8.2,3.68-.2.27-.13.47.19.34.41-.82,1.48-2,2.49-3.75,2.27a3.29,3.29,0,0,1-2.74-2.27,20.6,20.6,0,0,1-5.34.86l-2.31.23a9.88,9.88,0,0,1,4.48,5.13,1.35,1.35,0,0,1,.43,1.1c.13.38.24.75.33,1.13a2.6,2.6,0,0,1,1.29,3c-.44,1.82-2.59,2.42-4.19,1.77a4,4,0,0,1-2.44-3.94,4.38,4.38,0,0,1,.23-.84,13.45,13.45,0,0,0-2.4-3.94c0,.25,0,.5,0,.75,0,2.57-1,4.17-2.77,5.89a.72.72,0,0,1-.92.09,5.45,5.45,0,0,1-.36,2.39,1.63,1.63,0,0,1-1.65,1c-3.56-.37-4.69-5.28-1.13-6.68a1.42,1.42,0,0,1,2,1,.68.68,0,0,1,.61.13,10.9,10.9,0,0,1-.08-1.41c0-.93.18-1.86.26-2.8.1-1.23,0-2.47.13-3.69a.71.71,0,0,1-.36.13c-1.18-.06-2.48,0-3.79-.06a1.43,1.43,0,0,1-1.44,1.07,3.46,3.46,0,0,1-5.61,3.34,4.67,4.67,0,0,1-1-6c1.69-2.41,5.3-2.11,7.39-.47,1.58.19,3.17.5,4.6.65a.71.71,0,0,1,.45.24c0-.09,0-.18.06-.28a.72.72,0,0,1,.28-.36,16.72,16.72,0,0,1-1-1.35.46.46,0,0,1-.43-.65l0,0a.35.35,0,0,1,0-.08,37.27,37.27,0,0,1-5.88-.14,29.38,29.38,0,0,1-3.78-.48,2.16,2.16,0,0,1-.28.9c-1.45,2.52-5.65,2.09-6.39-.78-.57-2.21,1.48-5,3.82-3.67a1.26,1.26,0,0,1,.54,1,1.74,1.74,0,0,1,.15-.13,4.34,4.34,0,0,1,1.72-.54,3.58,3.58,0,0,1,.74-4.89,3.46,3.46,0,0,1-1.94,0,3.77,3.77,0,0,1-2.51-4.4C101.46,113.81,103.52,112.2,105.35,113Z"/><path class="cls-24" d="M108,124c3-.07,5.9,3,7.4,5.93,1.46.55,3.67,1.31,4.24,2.81a.23.23,0,0,1-.21.32c1,1.3,1.1,3.1,1.3,4.68.23,1.88.75,4.14-.87,5.53,0,0-.08,0-.11,0a3.3,3.3,0,0,1,2.87,3.06,2.94,2.94,0,0,1-3,3.12A2.7,2.7,0,0,1,117,146.9a4.22,4.22,0,0,1,1.79-2.6.89.89,0,0,1,.15-.76,1.52,1.52,0,0,1-.63-.17c-1.78-1-1.64-3.44-1.75-5.23a13.92,13.92,0,0,1,0-4,16.11,16.11,0,0,1-1.66,2.88,27.35,27.35,0,0,1-3,3.32.65.65,0,0,1-.18.65,4,4,0,0,1-1,.64,3.75,3.75,0,0,1-3.39,4.3,1.38,1.38,0,0,1-1.55-1.12,5.06,5.06,0,0,1,1.85-4.57,4,4,0,0,1,3.08-1,25.79,25.79,0,0,1,2.32-3.53,22.3,22.3,0,0,1,3.71-3.5l-.57-.31a1.21,1.21,0,0,0,0,.14c.08.33-.37.47-.57.25l-1.06-1.14c-1.62-.58-3.31-1-5-1.44a2.59,2.59,0,0,1,.45,1.27,1.61,1.61,0,0,1,.61,1.12,3.47,3.47,0,0,1-1.34,2.89,4,4,0,0,1-5.81-1.26,3.73,3.73,0,0,1,2-5.25,4,4,0,0,1,3.56.68.36.36,0,0,1,.3-.3,11,11,0,0,1,3,.16c-.36-.34-.7-.7-1.07-1-1.31-1-3-1.65-4-2.95A.7.7,0,0,1,108,124Z"/><path class="cls-24" d="M129.74,124a5,5,0,0,1,3.22-3.21,1.58,1.58,0,0,1,1.59,2.69,2,2,0,0,1-1.23,2.76.78.78,0,0,1-.4,1c-2.09.8-4.45.43-6.62,1.11-2.36.73-4.6,2.05-7.07,2.36a.37.37,0,0,1-.36-.56C120.38,127.32,125.75,123.68,129.74,124Z"/><path class="cls-24" d="M113.53,114.74a.62.62,0,0,1,.18,1,1.18,1.18,0,0,1-.32.27c-.3.14-.13.31.49.49.31-.94,1.72-.41,1.43.52a2.2,2.2,0,0,1-.6.92c3,2.47,4.34,8.65,1.57,11.36a.33.33,0,0,1-.5-.11c-.62-1.8-.39-3.68-.81-5.54s-1.35-3.35-1.91-5.08a1.8,1.8,0,0,1-1.46-.82C110.78,116.53,111.86,114,113.53,114.74Z"/><path class="cls-24" d="M107.79,121.91a1.38,1.38,0,0,1-1,2.13c-.55,1.45-2.63,2.14-3.45.07C102.19,121.3,106.19,119.47,107.79,121.91Z"/></g></g></svg>